<svg width="22" height="22" viewBox="0 0 22 22" fill="none" xmlns="http://www.w3.org/2000/svg">
<path fill-rule="evenodd" clip-rule="evenodd" d="M5.50008 1.83325H12.8334L18.3334 7.33325V18.3333C18.3334 19.3416 17.5084 20.1666 16.5001 20.1666H5.50008C4.49175 20.1666 3.66675 19.3416 3.66675 18.3333V3.66659C3.66675 2.65825 4.49175 1.83325 5.50008 1.83325ZM11.9167 3.20825V8.24992H16.9584L11.9167 3.20825ZM7.25395 17.0419C6.87595 17.0419 6.53761 16.9602 6.23895 16.7969C5.94495 16.6336 5.71395 16.4096 5.54595 16.1249C5.37795 15.8356 5.29395 15.5089 5.29395 15.1449C5.29395 14.7809 5.37795 14.4566 5.54595 14.1719C5.71395 13.8826 5.94495 13.6586 6.23895 13.4999C6.53761 13.3366 6.87595 13.2549 7.25395 13.2549C7.58995 13.2549 7.88861 13.3226 8.14995 13.4579C8.41595 13.5932 8.62128 13.7892 8.76595 14.0459L8.25495 14.3749C8.13828 14.1976 7.99361 14.0646 7.82095 13.9759C7.64828 13.8872 7.45695 13.8429 7.24695 13.8429C7.00428 13.8429 6.78495 13.8966 6.58895 14.0039C6.39761 14.1112 6.24595 14.2652 6.13395 14.4659C6.02661 14.6619 5.97295 14.8882 5.97295 15.1449C5.97295 15.4062 6.02661 15.6372 6.13395 15.8379C6.24595 16.0339 6.39761 16.1856 6.58895 16.2929C6.78495 16.4002 7.00428 16.4539 7.24695 16.4539C7.45695 16.4539 7.64828 16.4096 7.82095 16.3209C7.99361 16.2322 8.13828 16.0992 8.25495 15.9219L8.76595 16.2439C8.62128 16.5006 8.41595 16.6989 8.14995 16.8389C7.88861 16.9742 7.58995 17.0419 7.25395 17.0419ZM10.7 17.0419C10.3966 17.0419 10.105 17.0022 9.82497 16.9229C9.54497 16.8389 9.32564 16.7339 9.16697 16.6079L9.44697 16.0759C9.6103 16.1926 9.80864 16.2859 10.042 16.3559C10.2753 16.4259 10.511 16.4609 10.749 16.4609C11.337 16.4609 11.631 16.2929 11.631 15.9569C11.631 15.8449 11.5913 15.7562 11.512 15.6909C11.4326 15.6256 11.3323 15.5789 11.211 15.5509C11.0943 15.5182 10.9263 15.4832 10.707 15.4459C10.4083 15.3992 10.1633 15.3456 9.97197 15.2849C9.7853 15.2242 9.6243 15.1216 9.48897 14.9769C9.35363 14.8322 9.28597 14.6292 9.28597 14.3679C9.28597 14.0319 9.42597 13.7636 9.70597 13.5629C9.98597 13.3576 10.3616 13.2549 10.833 13.2549C11.0803 13.2549 11.3276 13.2852 11.575 13.3459C11.8223 13.4066 12.0253 13.4882 12.184 13.5909L11.897 14.1229C11.5936 13.9269 11.2366 13.8289 10.826 13.8289C10.5413 13.8289 10.3243 13.8756 10.175 13.9689C10.0256 14.0622 9.95097 14.1859 9.95097 14.3399C9.95097 14.4612 9.99297 14.5569 10.077 14.6269C10.161 14.6969 10.2636 14.7482 10.385 14.7809C10.511 14.8136 10.686 14.8509 10.91 14.8929C11.2086 14.9442 11.449 15.0002 11.631 15.0609C11.8176 15.1169 11.9763 15.2149 12.107 15.3549C12.2376 15.4949 12.303 15.6909 12.303 15.9429C12.303 16.2789 12.1583 16.5472 11.869 16.7479C11.5843 16.9439 11.1946 17.0419 10.7 17.0419ZM14.7334 16.9999L16.3574 13.2899H15.6994L14.3974 16.2649L13.1234 13.2899H12.4234L14.0474 16.9999H14.7334Z" fill="#2C303B"/>
</svg>
