<svg width="16" height="20" viewBox="0 0 16 20" fill="none" xmlns="http://www.w3.org/2000/svg">
<path d="M8.91663 7.24992H13.9583L8.91663 2.20825V7.24992ZM2.49996 0.833252H9.83329L15.3333 6.33325V17.3333C15.3333 18.3416 14.5083 19.1666 13.5 19.1666H2.49996C1.49163 19.1666 0.666626 18.3416 0.666626 17.3333V2.66659C0.666626 1.65825 1.49163 0.833252 2.49996 0.833252ZM6.25829 9.44992C6.23996 9.48658 5.99246 11.0633 4.33329 13.7491C4.33329 13.7491 1.12496 15.4174 1.88579 16.6641C2.49996 17.6541 4.01246 16.6274 5.31413 14.2074C5.31413 14.2074 6.98246 13.6208 9.20079 13.4558C9.20079 13.4558 12.7391 15.0416 13.225 13.3549C13.7016 11.6499 10.42 12.0349 9.83329 12.2091C9.83329 12.2091 7.99996 10.9716 7.54163 9.26659C7.54163 9.26659 8.58663 5.64575 6.98246 5.69159C5.37829 5.73742 5.98329 8.56075 6.25829 9.44992ZM7.00079 10.4033C7.02829 10.4124 7.43163 11.5124 8.73329 12.6583C8.73329 12.6583 6.59746 13.0799 5.62579 13.4833C5.62579 13.4833 6.54246 11.8974 7.00079 10.4033ZM10.6033 12.8966C11.135 12.7499 12.7391 13.0341 12.675 13.3366C12.62 13.6391 10.6033 12.8966 10.6033 12.8966ZM4.12246 14.5833C3.63663 15.7199 2.80246 16.4166 2.59163 16.4166C2.38079 16.4166 3.23329 14.9499 4.12246 14.5833ZM7.00079 8.23075C7.00079 8.16658 6.67079 6.21409 7.00079 6.25992C7.49579 6.33325 7.00079 8.16658 7.00079 8.23075Z" fill="#2C303B"/>
</svg>
