<svg width="22" height="22" viewBox="0 0 22 22" fill="none" xmlns="http://www.w3.org/2000/svg">
<path d="M13.75 4.58333V8.25H4.58333V17.4167H8.57083C7.79167 16.7475 7.33333 15.7575 7.33333 14.6667C7.33333 12.6408 8.97417 11 11 11C13.0258 11 14.6667 12.6408 14.6667 14.6667C14.6667 15.7575 14.2083 16.7475 13.4292 17.4167H17.4167V7.1775L14.8225 4.58333H13.75ZM4.58333 6.41667H11.9167V4.58333H4.58333V6.41667ZM15.5833 2.75L19.25 6.41667V17.4167C19.25 18.425 18.425 19.25 17.4167 19.25H4.58333C3.56583 19.25 2.75 18.425 2.75 17.4167V4.58333C2.75 3.575 3.575 2.75 4.58333 2.75H15.5833ZM11 12.8333C9.99167 12.8333 9.16667 13.6583 9.16667 14.6667C9.16667 15.675 9.99167 16.5 11 16.5C12.0083 16.5 12.8333 15.675 12.8333 14.6667C12.8333 13.6583 12.0083 12.8333 11 12.8333Z" fill="#66BB6A"/>
</svg>
